<svg xmlns="http://www.w3.org/2000/svg" width="1em" height="1em" viewBox="0 0 24 24"><g transform="rotate(90 12 12)"><path fill="currentColor" d="M4.05 21q-.45 0-.75-.3t-.3-.75V15.9q0-.35.225-.613q.225-.262.575-.337l3.45-.7q.35-.05.713.062q.362.113.587.338L10.9 17q1.9-1.15 3.488-2.725q1.587-1.575 2.637-3.375L14.6 8.45q-.225-.225-.288-.513q-.062-.287-.012-.637l.65-3.5q.05-.35.325-.575Q15.55 3 15.9 3h4.05q.45 0 .75.3t.3.75q0 3.225-1.438 6.287q-1.437 3.063-3.8 5.425q-2.362 2.363-5.424 3.8Q7.275 21 4.05 21ZM17.975 9q.425-.975.65-1.975q.225-1 .35-2.025H16.75l-.425 2.35Zm-8.95 8.95L7.35 16.275L5 16.75v2.2q1.025-.075 2.038-.325q1.012-.25 1.987-.675ZM17.975 9Zm-8.95 8.95Z"/></g></svg>